<svg width="20" height="18" viewBox="0 0 20 18" fill="none" xmlns="http://www.w3.org/2000/svg">
<path d="M1.68958 2.74773C4.45833 3.50363 7.22917 2.79842 10 2.09217C13.0208 1.32238 16.0417 0.552238 19.0625 1.68002C19.6493 1.89911 20 2.48696 20 3.11335V13.8717C20 14.7016 19.1111 15.2502 18.309 15.0314C15.5417 14.2745 12.7708 14.9793 10 15.6842C6.94792 16.455 3.92708 17.2259 0.936458 16.0974C0.349306 15.8786 0 15.2918 0 14.6634V3.90641C0 3.0762 0.889236 2.52898 1.68958 2.74773ZM9.96875 12.2224C11.5347 12.2224 12.7778 10.7293 12.7778 8.8578C12.7778 7.01752 11.5347 5.52446 9.96875 5.52446C8.46528 5.52446 7.19097 7.01752 7.19097 8.8578C7.19097 10.7293 8.46528 12.2224 9.96875 12.2224ZM2.19097 14.4446H4.41319C4.41319 13.2189 3.44965 12.2224 2.19097 12.2224V14.4446ZM2.19097 4.96891V7.19113C3.44965 7.19113 4.41319 6.22585 4.41319 4.96891H2.19097ZM17.7778 10.5245C16.5521 10.5245 15.5556 11.5522 15.5556 12.7779H17.7778V10.5245ZM15.5556 3.30224C15.5556 4.55918 16.5521 5.52446 17.7778 5.52446V3.30224H15.5556Z" fill="black"/>
</svg>
