<svg width="16" height="15" viewBox="0 0 16 15" fill="none" xmlns="http://www.w3.org/2000/svg">
<path d="M1.35167 2.19828C3.56667 2.803 5.78333 2.23883 8 1.67383C10.4167 1.058 12.8333 0.441888 15.25 1.34411C15.7194 1.51939 16 1.98967 16 2.49078V11.0974C16 11.7613 15.2889 12.2002 14.6472 12.0252C12.4333 11.4197 10.2167 11.9836 8 12.5475C5.55833 13.1641 3.14167 13.7808 0.749167 12.878C0.279444 12.703 0 12.2336 0 11.7308V3.12522C0 2.46106 0.711389 2.02328 1.35167 2.19828ZM7.975 9.778C9.22778 9.778 10.2222 8.58356 10.2222 7.08634C10.2222 5.61411 9.22778 4.41967 7.975 4.41967C6.77222 4.41967 5.75278 5.61411 5.75278 7.08634C5.75278 8.58356 6.77222 9.778 7.975 9.778ZM1.75278 11.5558H3.53056C3.53056 10.5752 2.75972 9.778 1.75278 9.778V11.5558ZM1.75278 3.97522V5.753C2.75972 5.753 3.53056 4.98078 3.53056 3.97522H1.75278ZM14.2222 8.41967C13.2417 8.41967 12.4444 9.24189 12.4444 10.2224H14.2222V8.41967ZM12.4444 2.64189C12.4444 3.64745 13.2417 4.41967 14.2222 4.41967V2.64189H12.4444Z" fill="#0065FC"/>
</svg>
