<svg width="23" height="20" viewBox="0 0 23 20" fill="none" xmlns="http://www.w3.org/2000/svg">
<g clip-path="url(#clip0_104_11)">
<path d="M11.643 8.75014L17.5 10.8419V19.3751C17.5 19.5409 17.4342 19.6999 17.3169 19.8171C17.1997 19.9343 17.0408 20.0001 16.875 20.0001H14.375C14.2092 20.0001 14.0503 19.9343 13.9331 19.8171C13.8158 19.6999 13.75 19.5409 13.75 19.3751V15.0001H7.5V19.3751C7.5 19.5409 7.43415 19.6999 7.31694 19.8171C7.19973 19.9343 7.04076 20.0001 6.875 20.0001H4.375C4.20924 20.0001 4.05027 19.9343 3.93306 19.8171C3.81585 19.6999 3.75 19.5409 3.75 19.3751V11.0193C2.29844 10.5017 1.25 9.12748 1.25 7.50014C1.25 7.16862 1.3817 6.85068 1.61612 6.61626C1.85054 6.38184 2.16848 6.25014 2.5 6.25014C2.83152 6.25014 3.14946 6.38184 3.38388 6.61626C3.6183 6.85068 3.75 7.16862 3.75 7.50014C3.75062 7.83147 3.88251 8.14905 4.1168 8.38334C4.35109 8.61763 4.66867 8.74952 5 8.75014H11.643ZM21.25 4.37514V5.62514C21.25 6.28818 20.9866 6.92407 20.5178 7.39291C20.0489 7.86175 19.413 8.12514 18.75 8.12514H17.5V9.51498L12.5 7.72944V1.87514C12.5 1.3185 13.1727 1.03959 13.5668 1.43334L14.6324 2.50014H16.7273C17.1535 2.50014 17.6551 2.80951 17.8453 3.19116L18.125 3.75014H20.625C20.7908 3.75014 20.9497 3.81599 21.0669 3.9332C21.1842 4.05041 21.25 4.20938 21.25 4.37514ZM16.875 4.37514C16.875 4.25153 16.8383 4.13069 16.7697 4.02791C16.701 3.92513 16.6034 3.84502 16.4892 3.79772C16.375 3.75041 16.2493 3.73803 16.1281 3.76215C16.0068 3.78626 15.8955 3.84579 15.8081 3.9332C15.7206 4.02061 15.6611 4.13197 15.637 4.25321C15.6129 4.37445 15.6253 4.50011 15.6726 4.61432C15.7199 4.72852 15.8 4.82613 15.9028 4.89481C16.0055 4.96348 16.1264 5.00014 16.25 5.00014C16.4158 5.00014 16.5747 4.93429 16.6919 4.81708C16.8092 4.69987 16.875 4.5409 16.875 4.37514Z" fill="black"/>
</g>
<defs>
<clipPath id="clip0_104_11">
<rect width="22.5" height="20" fill="white"/>
</clipPath>
</defs>
</svg>
