<svg width="20" height="20" viewBox="0 0 20 20" fill="none" xmlns="http://www.w3.org/2000/svg">
<path d="M4.16669 0.833496C4.16669 3.0835 5.46669 5.1335 7.50002 6.10016V18.3335H9.16669V12.5002H10.8334V18.3335H12.5V6.09183C14.5334 5.1335 15.8334 3.0835 15.8334 0.833496H14.1667C14.1667 1.93856 13.7277 2.99837 12.9463 3.77977C12.5594 4.16669 12.1001 4.4736 11.5945 4.68299C11.089 4.89239 10.5472 5.00016 10 5.00016C8.89495 5.00016 7.83514 4.56118 7.05374 3.77977C6.27234 2.99837 5.83335 1.93856 5.83335 0.833496H4.16669ZM10 0.833496C9.07502 0.833496 8.33335 1.57516 8.33335 2.50016C8.33335 3.42516 9.07502 4.16683 10 4.16683C10.925 4.16683 11.6667 3.42516 11.6667 2.50016C11.6667 1.57516 10.925 0.833496 10 0.833496Z" fill="black"/>
</svg>
