<svg width="16" height="16" viewBox="0 0 16 16" fill="none" xmlns="http://www.w3.org/2000/svg">
<path d="M3.33331 0.666504C3.33331 2.4665 4.37331 4.1065 5.99998 4.87984V14.6665H7.33331V9.99984H8.66665V14.6665H9.99998V4.87317C11.6266 4.1065 12.6666 2.4665 12.6666 0.666504H11.3333C11.3333 1.55056 10.9821 2.39841 10.357 3.02353C10.0475 3.33305 9.68001 3.57859 9.27559 3.7461C8.87117 3.91362 8.43772 3.99984 7.99998 3.99984C7.11593 3.99984 6.26808 3.64865 5.64296 3.02353C5.01784 2.39841 4.66665 1.55056 4.66665 0.666504H3.33331ZM7.99998 0.666504C7.25998 0.666504 6.66665 1.25984 6.66665 1.99984C6.66665 2.73984 7.25998 3.33317 7.99998 3.33317C8.73998 3.33317 9.33331 2.73984 9.33331 1.99984C9.33331 1.25984 8.73998 0.666504 7.99998 0.666504Z" fill="#0065FC"/>
</svg>
