<svg width="16" height="16" viewBox="0 0 20 20" fill="none" xmlns="http://www.w3.org/2000/svg">
<path d="M11.5278 5.55577C12.7551 5.55577 13.75 4.56085 13.75 3.33355C13.75 2.10625 12.7551 1.11133 11.5278 1.11133C10.3005 1.11133 9.30554 2.10625 9.30554 3.33355C9.30554 4.56085 10.3005 5.55577 11.5278 5.55577Z" fill="black"/>
<path d="M13.8 14.5725C13.7386 14.5312 13.6696 14.5025 13.597 14.4883C13.5244 14.474 13.4497 14.4744 13.3772 14.4894C13.3048 14.5044 13.2361 14.5337 13.1751 14.5757C13.1141 14.6176 13.0622 14.6713 13.0222 14.7336C12.4852 15.5289 11.8272 16.2356 11.0722 16.828C10.8889 16.9669 10.2056 17.4947 9.91667 17.3836C9.71667 17.3225 9.83334 16.928 9.87223 16.7613L10.1667 15.8891C10.2889 15.5336 12.4167 9.22245 12.65 8.50023C12.9944 7.44467 12.8444 6.40579 11.2722 6.65579C10.8444 6.70023 6.50556 7.26134 6.42778 7.2669C6.35483 7.27164 6.28352 7.2907 6.21793 7.32301C6.15234 7.35531 6.09376 7.40021 6.04552 7.45515C5.99729 7.51009 5.96035 7.574 5.93681 7.64321C5.91327 7.71243 5.9036 7.78561 5.90834 7.85856C5.91308 7.93152 5.93215 8.00283 5.96445 8.06842C5.99675 8.13401 6.04165 8.19259 6.09659 8.24082C6.15153 8.28906 6.21544 8.326 6.28465 8.34954C6.35387 8.37308 6.42705 8.38275 6.5 8.37801C6.5 8.37801 8.16667 8.16134 8.35 8.14467C8.44391 8.13551 8.53846 8.15371 8.62226 8.19708C8.70605 8.24046 8.7755 8.30715 8.82223 8.38912C8.92289 8.7003 8.9091 9.03721 8.78334 9.33912C8.63889 9.89467 6.35556 16.328 6.28334 16.7002C6.20588 17.0117 6.22738 17.3396 6.34487 17.6383C6.46236 17.937 6.66998 18.1917 6.93889 18.3669C7.44362 18.7033 8.04459 18.8652 8.65 18.828C9.23865 18.8208 9.82081 18.704 10.3667 18.4836C11.75 17.928 13.1944 16.4502 13.9556 15.2891C14.0211 15.1711 14.0415 15.0334 14.0128 14.9015C13.9842 14.7696 13.9086 14.6526 13.8 14.5725V14.5725Z" fill="#0065FC"/>
</svg>
