<svg width="16" height="16" viewBox="0 0 20 20" fill="none" xmlns="http://www.w3.org/2000/svg">
<g clip-path="url(#clip0_118_2)">
<path d="M19.543 17.332L14.8672 12.6562C15.9305 11.0777 16.4551 9.10546 16.1742 7.00389C15.6953 3.42928 12.7656 0.520299 9.18749 0.0672912C3.86756 -0.605873 -0.605874 3.86756 0.0673291 9.18749C0.520454 12.7672 3.42983 15.6992 7.00483 16.1758C9.10639 16.4566 11.079 15.9322 12.6572 14.8687L17.333 19.5445C17.9431 20.1547 18.9326 20.1547 19.5427 19.5445C20.1523 18.9336 20.1523 17.9414 19.543 17.332V17.332ZM3.08983 8.12499C3.08983 5.36795 5.3328 3.12499 8.08983 3.12499C10.8469 3.12499 13.0898 5.36795 13.0898 8.12499C13.0898 10.882 10.8469 13.125 8.08983 13.125C5.3328 13.125 3.08983 10.8828 3.08983 8.12499V8.12499Z" fill="white"/>
</g>
<defs>
<clipPath id="clip0_118_2">
<rect width="20" height="20" fill="white"/>
</clipPath>
</defs>
</svg>
