<svg width="20" height="29" viewBox="0 0 20 29" fill="none" xmlns="http://www.w3.org/2000/svg">
<g clip-path="url(#clip0_102_3)">
<path d="M19.4969 7.16981C19.4549 7.04403 19.3816 6.84486 19.2767 6.57233C19.1719 6.29979 19.0985 6.12159 19.0566 6.03774C18.1761 3.98323 16.8868 2.46331 15.1887 1.47799C13.4906 0.492662 11.7191 0 9.87421 0C7.48428 0 5.32495 0.786164 3.39623 2.35849C1.46751 3.93082 0.33543 6.14256 0 8.99371V10.1887L0.0628931 10.5031V10.9434C0.146751 11.6143 0.366876 12.3795 0.72327 13.239C1.07966 14.0985 1.40461 14.7904 1.69811 15.3145C1.99161 15.8386 2.46331 16.6352 3.11321 17.7044C3.7631 18.7736 4.19287 19.4759 4.40252 19.8113C5.61845 21.8658 7.48428 24.9057 10 28.9308C10.3354 28.3857 11.4885 26.4151 13.4591 23.0189C13.543 22.8931 13.7002 22.6415 13.9308 22.2642C14.1614 21.8868 14.3187 21.5933 14.4025 21.3836C14.4864 21.2579 14.6226 21.0797 14.8113 20.8491C15 20.6184 15.1363 20.4403 15.2201 20.3145C15.5136 19.7694 16.153 18.7317 17.1384 17.2013C18.1237 15.6709 18.847 14.3816 19.3082 13.3333C19.7694 12.2851 20 11.2579 20 10.2516V8.86793C20 8.40671 19.8323 7.84067 19.4969 7.16981ZM9.93711 13.3962C8.30189 13.3962 7.16981 12.5996 6.54088 11.0063C6.49895 10.7966 6.47799 10.4822 6.47799 10.0629V9.24528C6.47799 8.19707 6.83438 7.38994 7.54717 6.8239C8.25996 6.25786 9.09853 5.97484 10.0629 5.97484C11.1111 5.97484 11.9811 6.33124 12.673 7.04403C13.3648 7.75681 13.7107 8.63732 13.7107 9.68554C13.7107 10.7338 13.3438 11.6143 12.6101 12.327C11.8763 13.0398 10.9853 13.3962 9.93711 13.3962Z" fill="black"/>
</g>
<defs>
<clipPath id="clip0_102_3">
<rect width="20" height="28.9308" fill="white"/>
</clipPath>
</defs>
</svg>
