<svg width="12" height="16" viewBox="0 0 12 16" fill="none" xmlns="http://www.w3.org/2000/svg">
<g clip-path="url(#clip0_102_3)">
<path d="M10.7826 3.96522C10.7594 3.89565 10.7188 3.78551 10.6609 3.63478C10.6029 3.48406 10.5623 3.38551 10.5391 3.33913C10.0522 2.2029 9.33913 1.36232 8.4 0.817391C7.46087 0.272464 6.48116 0 5.46087 0C4.13913 0 2.94493 0.434783 1.87826 1.30435C0.811594 2.17391 0.185507 3.3971 0 4.97391V5.63478L0.0347826 5.8087V6.05217C0.0811594 6.42319 0.202899 6.84638 0.4 7.32174C0.597101 7.7971 0.776812 8.17971 0.93913 8.46956C1.10145 8.75942 1.36232 9.2 1.72174 9.7913C2.08116 10.3826 2.31884 10.771 2.43478 10.9565C3.10725 12.0928 4.13913 13.7739 5.53043 16C5.71594 15.6985 6.35362 14.6087 7.44348 12.7304C7.48985 12.6609 7.57681 12.5217 7.70435 12.313C7.83188 12.1043 7.91884 11.942 7.96522 11.8261C8.01159 11.7565 8.08696 11.658 8.1913 11.5304C8.29565 11.4029 8.37101 11.3043 8.41739 11.2348C8.57971 10.9333 8.93333 10.3594 9.47826 9.51304C10.0232 8.66667 10.4232 7.95362 10.6783 7.37391C10.9333 6.7942 11.0609 6.22609 11.0609 5.66956V4.90435C11.0609 4.64928 10.9681 4.33623 10.7826 3.96522ZM5.49565 7.4087C4.5913 7.4087 3.96522 6.96812 3.61739 6.08696C3.5942 5.97101 3.58261 5.7971 3.58261 5.56522V5.11304C3.58261 4.53333 3.77971 4.08696 4.17391 3.77391C4.56812 3.46087 5.03188 3.30435 5.56522 3.30435C6.14493 3.30435 6.62609 3.50145 7.0087 3.89565C7.3913 4.28985 7.58261 4.77681 7.58261 5.35652C7.58261 5.93623 7.37971 6.42319 6.97391 6.81739C6.56812 7.21159 6.07536 7.4087 5.49565 7.4087Z" fill="#0065FC"/>
</g>
<defs>
<clipPath id="clip0_102_3">
<rect width="11.0609" height="16" fill="white"/>
</clipPath>
</defs>
</svg>
